<?xml version="1.0" standalone="no"?>
<!DOCTYPE svg PUBLIC "-//W3C//DTD SVG 20010904//EN"
 "http://www.w3.org/TR/2001/REC-SVG-20010904/DTD/svg10.dtd">
<svg version="1.0" xmlns="http://www.w3.org/2000/svg"
 width="1280.000000pt" height="1048.000000pt" viewBox="0 0 1280.000000 1048.000000"
 preserveAspectRatio="xMidYMid meet">
<g transform="translate(0.000000,1048.000000) scale(0.100000,-0.100000)"
fill="#000000" stroke="none">
<path d="M5351 10454 c-46 -58 -22 -144 40 -144 34 0 49 24 49 78 0 41 -30 92
-55 92 -7 0 -23 -12 -34 -26z"/>
<path d="M7307 10456 c-52 -48 -29 -136 36 -136 53 0 65 80 19 131 l-27 31
-28 -26z"/>
<path d="M7759 10467 c-42 -32 -50 -90 -18 -131 26 -33 52 -33 79 1 27 34 22
84 -11 119 -26 27 -28 28 -50 11z"/>
<path d="M6142 10458 c-7 -7 -12 -30 -12 -52 0 -84 48 -122 89 -70 28 36 27
79 -4 109 -26 27 -54 32 -73 13z"/>
<path d="M6942 10454 c-41 -28 -22 -135 25 -142 55 -8 87 94 43 138 -24 24
-38 25 -68 4z"/>
<path d="M5740 10395 c0 -8 10 -19 21 -26 17 -9 25 -8 36 4 21 20 8 37 -28 37
-19 0 -29 -5 -29 -15z"/>
<path d="M6552 10393 c5 -26 38 -29 38 -4 0 15 -6 21 -21 21 -14 0 -19 -5 -17
-17z"/>
<path d="M4370 10261 c-5 -11 -10 -34 -10 -51 0 -45 16 -70 45 -70 54 0 83 69
49 118 -20 28 -69 30 -84 3z"/>
<path d="M5160 10261 c-13 -25 -13 -62 0 -95 8 -21 16 -26 44 -26 25 0 38 6
46 19 15 29 12 87 -6 105 -22 23 -71 20 -84 -3z"/>
<path d="M5510 10253 c-25 -32 -20 -69 12 -95 26 -23 40 -23 68 0 29 24 32 88
5 108 -29 22 -61 17 -85 -13z"/>
<path d="M6310 10254 c-24 -62 5 -118 58 -112 25 3 27 7 30 56 4 62 -8 82 -49
82 -22 0 -32 -6 -39 -26z"/>
<path d="M7109 10264 c-19 -23 -16 -80 6 -104 23 -26 71 -27 85 -1 16 31 12
79 -10 101 -24 24 -63 26 -81 4z"/>
<path d="M7906 10258 c-18 -26 -21 -71 -6 -99 13 -24 72 -26 91 -3 7 9 14 33
14 54 0 21 -7 45 -14 54 -20 24 -67 20 -85 -6z"/>
<path d="M8272 10268 c-7 -7 -12 -33 -12 -58 0 -69 33 -90 81 -52 17 14 22 28
21 57 -1 20 -7 44 -13 51 -14 17 -61 18 -77 2z"/>
<path d="M8709 10264 c-21 -25 -17 -93 6 -110 27 -20 52 -17 76 7 17 17 20 29
16 56 -3 19 -11 41 -18 49 -16 19 -63 18 -80 -2z"/>
<path d="M4780 10216 c0 -33 20 -44 37 -20 17 24 12 38 -15 42 -18 3 -22 -2
-22 -22z"/>
<path d="M5932 10213 c2 -17 9 -28 18 -28 9 0 16 11 18 28 3 22 -1 27 -18 27
-17 0 -21 -5 -18 -27z"/>
<path d="M6723 10224 c-3 -8 2 -23 11 -32 15 -15 17 -15 32 0 21 21 11 48 -16
48 -11 0 -23 -7 -27 -16z"/>
<path d="M7516 10232 c-10 -17 29 -56 48 -49 28 11 16 51 -16 55 -14 2 -29 -1
-32 -6z"/>
<path d="M3747 10092 c-35 -38 -12 -142 31 -142 28 0 59 27 65 56 14 74 -53
133 -96 86z"/>
<path d="M8501 10051 c-21 -13 -5 -41 23 -41 31 0 42 26 16 40 -22 12 -21 12
-39 1z"/>
<path d="M6533 10024 c-8 -22 5 -60 38 -114 32 -52 33 -80 2 -80 -10 0 -96 38
-193 84 -177 85 -255 115 -267 103 -3 -4 10 -43 30 -88 55 -122 32 -120 -190
14 -108 65 -141 80 -175 81 -42 1 -43 0 -40 -29 1 -16 21 -56 43 -88 22 -31
37 -62 34 -67 -18 -30 -168 9 -345 88 -74 34 -136 59 -138 57 -3 -2 10 -34 27
-71 17 -37 28 -71 24 -75 -4 -4 -150 -9 -323 -11 l-315 -4 -65 -28 c-36 -15
-92 -30 -127 -33 -57 -5 -69 -2 -139 31 -42 20 -81 36 -86 36 -6 0 -29 -16
-51 -36 -39 -36 -40 -36 -111 -32 -47 4 -91 14 -130 32 -35 15 -63 23 -68 18
-12 -12 13 -72 41 -96 11 -11 21 -27 21 -36 0 -15 -14 -18 -97 -23 -77 -4
-132 -15 -258 -52 -88 -26 -191 -55 -230 -65 -63 -15 -73 -21 -98 -58 -21 -32
-46 -50 -100 -76 -180 -87 -363 -119 -442 -78 l-39 20 -41 -43 c-96 -98 -555
-375 -623 -375 -12 0 -49 14 -82 30 -33 17 -60 26 -60 20 0 -6 14 -37 30 -70
l30 -60 -22 -13 c-13 -8 -68 -38 -122 -66 -156 -82 -256 -154 -456 -326 -201
-172 -547 -534 -839 -875 -126 -146 -149 -186 -161 -272 -6 -40 -33 -192 -60
-338 -140 -751 -151 -981 -65 -1404 85 -421 281 -831 566 -1186 259 -323 752
-760 1034 -915 227 -125 335 -224 335 -306 l0 -38 53 24 c72 34 111 32 196
-11 84 -42 214 -161 312 -285 82 -103 189 -259 189 -275 0 -24 -20 -25 -66 -5
-108 48 -120 17 -47 -128 l48 -95 -1 -140 c0 -132 -3 -147 -33 -236 -18 -52
-79 -185 -135 -295 -57 -110 -149 -289 -205 -397 -117 -225 -155 -323 -170
-429 -18 -129 4 -192 83 -243 73 -48 101 -51 411 -51 l290 0 220 86 c361 142
538 199 623 199 32 0 50 -9 102 -51 93 -74 140 -89 140 -44 0 31 -23 77 -63
127 -37 46 -32 74 19 113 l36 27 36 -35 c44 -43 84 -59 120 -51 15 4 64 26
109 50 l82 44 93 -45 c109 -52 148 -63 148 -44 0 8 -11 41 -25 74 -61 148 -8
197 125 115 69 -42 107 -50 117 -24 3 8 -15 57 -42 109 -74 148 -54 176 74
101 43 -25 83 -46 89 -46 34 0 430 415 466 488 l21 43 -23 39 c-35 62 -33 64
66 57 48 -4 92 -3 98 1 6 4 23 26 38 49 15 26 36 45 52 49 48 12 157 -3 222
-30 93 -39 104 -24 47 64 -38 61 -42 85 -19 118 24 35 54 26 129 -38 134 -115
280 -199 349 -200 26 0 28 2 21 27 -3 15 -22 61 -41 102 -62 134 -39 157 90
93 107 -54 123 -58 130 -34 10 30 -11 106 -50 184 -19 38 -33 76 -30 84 8 22
50 17 87 -11 117 -85 351 -225 377 -225 16 0 15 5 -8 70 -22 63 -25 121 -8
138 18 18 77 14 122 -8 23 -11 90 -60 150 -110 146 -120 184 -122 106 -5 -44
66 -52 114 -24 154 17 23 19 23 133 17 l116 -7 73 36 c89 43 125 44 200 6 75
-38 163 -64 175 -52 9 9 -1 48 -34 129 -18 43 -5 52 82 52 75 0 149 20 231 61
32 16 62 29 68 29 5 0 27 -15 47 -34 52 -45 75 -56 123 -56 48 0 84 17 124 58
35 38 78 56 110 48 13 -3 44 -22 67 -42 48 -40 138 -86 151 -78 14 9 -1 62
-34 128 -37 73 -39 113 -8 138 12 10 26 18 30 18 5 0 29 -17 53 -39 51 -43 85
-55 119 -42 13 5 95 62 184 128 88 65 177 127 197 136 33 16 39 16 66 3 16 -9
50 -34 76 -56 31 -27 56 -40 76 -40 27 0 29 3 29 38 0 22 -12 59 -30 91 -33
59 -38 102 -15 121 19 16 42 8 165 -60 110 -60 175 -88 185 -78 3 3 -5 23 -20
43 -37 56 -33 82 29 156 121 146 414 419 450 419 6 0 48 -23 91 -50 94 -60
132 -64 127 -15 -2 17 -16 53 -32 81 -41 74 -44 120 -6 130 16 4 46 -6 94 -30
79 -40 132 -47 132 -18 0 9 -12 37 -25 62 -63 114 -68 129 -51 156 13 19 25
24 61 24 25 0 68 -9 97 -20 29 -11 57 -20 62 -20 17 0 -3 69 -45 153 -48 97
-48 96 26 147 89 61 125 49 180 -59 19 -38 39 -72 45 -76 14 -9 38 11 57 48
14 28 13 33 -26 113 -23 45 -41 95 -41 109 0 28 40 75 63 75 8 0 45 -20 83
-45 123 -80 124 -60 5 106 -48 68 -98 142 -110 164 -29 54 -28 100 3 120 33
22 45 14 159 -92 113 -106 203 -173 229 -173 18 0 20 4 14 41 -10 60 -32 98
-150 254 -58 77 -104 145 -103 150 7 22 77 15 157 -15 45 -18 84 -30 86 -27 6
6 -32 120 -57 168 -27 54 -24 91 16 179 45 100 46 148 5 200 -16 21 -30 44
-30 51 0 21 51 89 67 89 8 0 33 -15 55 -34 74 -64 138 -82 138 -39 -1 60 -115
260 -209 365 -28 31 -51 61 -51 67 0 7 43 11 130 11 120 0 130 1 130 18 0 27
-48 90 -165 219 -56 61 -105 121 -108 133 -4 14 2 29 15 42 26 26 62 19 136
-27 32 -19 72 -38 90 -41 28 -6 32 -4 32 15 0 32 -33 91 -82 147 -86 96 -198
266 -198 297 0 8 18 53 40 100 22 47 40 99 40 117 0 41 -33 86 -165 230 -123
133 -121 125 -61 255 20 43 33 82 30 87 -11 17 -87 1 -164 -33 -105 -47 -112
-26 -39 129 43 93 48 131 21 155 -27 25 -62 21 -162 -18 -154 -60 -168 -48
-105 86 25 52 45 101 45 110 0 22 -80 111 -331 366 -118 120 -219 215 -233
219 -17 4 -51 -6 -108 -31 -46 -20 -91 -39 -101 -42 -33 -10 -47 15 -47 86 0
57 4 74 29 113 16 25 34 49 40 52 19 12 12 45 -14 62 -30 20 -62 13 -167 -32
-123 -55 -164 -47 -256 45 -33 34 -79 70 -103 80 -44 19 -199 51 -251 51 -49
0 -58 21 -58 131 0 54 -3 99 -7 99 -5 0 -35 -14 -68 -30 -76 -37 -132 -40
-163 -7 -31 33 -27 67 14 115 42 49 50 45 -123 62 -200 19 -329 64 -538 185
-140 81 -250 132 -302 141 -37 6 -43 3 -98 -45 -32 -28 -70 -54 -83 -58 -26
-6 -22 -8 -144 94 -81 68 -172 134 -219 158 -28 15 -32 15 -64 -5 -19 -12 -35
-26 -35 -31 0 -5 25 -25 55 -44 86 -56 72 -95 -27 -74 -100 22 -144 50 -303
193 -128 115 -178 154 -230 177 -79 35 -83 14 -19 -107 39 -74 44 -91 35 -111
-24 -53 -171 -24 -443 89 -317 131 -414 161 -425 132z m527 -674 c386 -7 488
-12 600 -29 482 -73 950 -210 1405 -409 475 -208 853 -454 1230 -800 158 -144
477 -467 556 -562 189 -226 396 -614 482 -900 101 -335 94 -808 -18 -1235 -43
-166 -75 -254 -138 -384 -117 -242 -424 -642 -633 -826 -666 -585 -1594 -991
-2839 -1240 -688 -138 -1183 -175 -2326 -175 l-456 0 -43 -54 c-56 -70 -132
-204 -290 -506 -252 -484 -351 -634 -550 -829 -152 -150 -304 -249 -508 -333
-159 -65 -267 -89 -431 -95 l-144 -6 6 86 c10 129 42 244 217 787 50 157 106
341 123 410 30 118 32 135 32 305 -1 330 -54 473 -255 676 -191 193 -387 323
-910 604 -151 81 -329 179 -395 218 -691 407 -1094 989 -1166 1683 -17 166 -7
691 16 814 150 819 761 1532 1728 2016 752 377 1739 648 2772 760 293 31 1040
41 1935 24z m3726 -941 c3 -6 -14 -32 -40 -57 -34 -35 -48 -44 -57 -35 -16 16
-3 80 19 92 23 14 69 14 78 0z m204 -221 c79 -68 163 -173 158 -196 -7 -34
-32 -19 -123 69 -101 98 -141 150 -131 174 9 24 21 18 96 -47z m635 -884 c32
-35 40 -82 22 -127 -28 -65 -75 -71 -122 -16 -43 52 -23 134 39 159 32 13 35
12 61 -16z m127 -270 c10 -21 9 -31 -3 -52 -32 -58 -104 -12 -80 51 15 38 66
39 83 1z m-7 -1668 c34 -52 -18 -114 -57 -66 -32 39 -18 90 24 90 10 0 25 -11
33 -24z m-385 -791 c0 -56 -36 -73 -80 -37 -20 16 -21 21 -11 41 25 47 91 44
91 -4z m-195 -151 c23 -9 45 -57 45 -99 0 -48 -29 -75 -80 -75 -47 0 -60 18
-60 80 0 33 6 48 29 71 31 30 39 33 66 23z m-597 -661 c18 -25 16 -118 -4
-137 -33 -34 -105 -4 -118 50 -8 32 10 90 32 104 23 14 74 4 90 -17z m-204
-157 c44 -18 61 -60 46 -114 -20 -75 -66 -94 -111 -46 -20 21 -24 36 -24 86 0
47 4 62 19 74 24 17 29 17 70 0z m-204 -237 c14 -25 -3 -74 -27 -84 -23 -8
-63 33 -63 65 0 34 6 40 46 40 24 0 37 -6 44 -21z m-585 -115 c24 -10 45 -58
45 -104 0 -30 -6 -47 -25 -65 -51 -52 -125 -13 -125 65 0 80 47 126 105 104z
m-195 -312 c0 -34 -16 -52 -46 -52 -36 0 -39 19 -8 51 35 37 54 37 54 1z
m-586 -154 c16 -26 -4 -72 -33 -76 -24 -4 -61 23 -61 44 0 17 50 55 68 52 8
-2 20 -11 26 -20z m-1034 -228 c21 -13 1 -64 -26 -68 -24 -3 -54 21 -54 44 0
24 54 41 80 24z m-1356 -152 c23 -33 21 -113 -4 -138 -25 -25 -72 -26 -95 0
-28 31 -31 100 -5 133 28 35 81 38 104 5z m-969 -623 c52 -51 18 -155 -50
-155 -60 0 -93 76 -60 140 24 47 72 54 110 15z m-185 -165 c42 -42 36 -127
-11 -163 -51 -37 -100 6 -101 88 -2 78 64 123 112 75z m-802 -476 c5 -67 -50
-87 -76 -28 -11 22 -9 28 13 50 36 36 59 28 63 -22z"/>
<path d="M4223 10009 c-26 -9 -29 -19 -11 -37 21 -21 48 -14 48 12 0 31 -8 36
-37 25z"/>
<path d="M4576 10001 c-22 -24 -13 -41 20 -41 22 0 25 4 22 27 -4 34 -20 39
-42 14z"/>
<path d="M4970 10005 c-19 -23 -8 -50 20 -50 16 0 26 6 28 18 4 18 -14 47 -28
47 -4 0 -13 -7 -20 -15z"/>
<path d="M6935 9990 c31 -33 55 -27 36 9 -8 13 -21 21 -38 21 l-27 0 29 -30z"/>
<path d="M7702 10008 c-18 -18 -14 -46 7 -58 38 -20 71 13 51 51 -12 21 -40
25 -58 7z"/>
<path d="M8111 10003 c-23 -15 -23 -17 -6 -30 11 -7 27 -13 38 -13 14 0 18 6
15 27 -4 33 -17 38 -47 16z"/>
<path d="M8909 10004 c-11 -14 -11 -18 6 -30 22 -16 39 -5 33 22 -4 24 -22 28
-39 8z"/>
<path d="M3601 9826 c-15 -18 -3 -46 20 -46 14 0 19 7 19 30 0 32 -19 40 -39
16z"/>
<path d="M3215 9810 c-27 -30 -25 -88 4 -111 13 -11 29 -19 36 -19 30 0 59 37
59 75 0 63 -61 97 -99 55z"/>
<path d="M8316 9814 c-4 -10 -2 -22 3 -27 15 -15 46 -3 46 18 0 26 -40 33 -49
9z"/>
<path d="M9510 9810 c-38 -38 -14 -130 34 -130 7 0 25 9 40 21 33 26 35 75 6
107 -26 27 -54 28 -80 2z"/>
<path d="M9114 9775 c-9 -24 25 -58 43 -43 8 6 13 21 11 32 -4 26 -45 35 -54
11z"/>
<path d="M2593 9633 c-21 -31 -23 -94 -4 -117 16 -19 62 -21 79 -4 7 7 12 33
12 58 0 81 -51 118 -87 63z"/>
<path d="M2962 9638 c-43 -47 -36 -117 14 -140 24 -11 29 -10 50 15 30 35 31
85 3 121 -25 32 -39 33 -67 4z"/>
<path d="M9690 9640 c-24 -24 -27 -86 -4 -118 20 -28 69 -30 84 -3 13 26 13
77 -1 104 -22 42 -48 48 -79 17z"/>
<path d="M10120 9633 c-17 -22 -21 -37 -17 -66 7 -48 22 -67 56 -67 38 0 51
17 51 70 0 83 -48 116 -90 63z"/>
<path d="M8940 9611 c0 -12 6 -21 15 -21 8 0 15 4 15 9 0 5 -7 14 -15 21 -13
10 -15 9 -15 -9z"/>
<path d="M9296 9591 c-3 -5 3 -20 13 -32 15 -18 22 -21 31 -13 17 17 3 54 -20
54 -10 0 -21 -4 -24 -9z"/>
<path d="M2440 9463 c-40 -16 -52 -72 -24 -111 12 -17 24 -22 47 -20 l32 3 0
65 c0 58 -2 65 -20 67 -11 1 -27 -1 -35 -4z"/>
<path d="M9850 9450 c-6 -12 -10 -40 -8 -63 3 -35 7 -43 31 -51 42 -15 61 2
65 58 2 27 -2 54 -9 62 -18 21 -66 18 -79 -6z"/>
<path d="M10300 9451 c-13 -25 -13 -62 0 -95 8 -21 16 -26 45 -26 29 0 37 5
45 26 16 40 12 63 -15 89 -29 30 -60 32 -75 6z"/>
<path d="M2171 9281 c-44 -44 -38 -118 11 -135 56 -20 89 57 55 124 -16 32
-41 36 -66 11z"/>
<path d="M1799 9274 c-33 -40 -4 -134 42 -134 44 0 67 100 31 133 -24 22 -56
22 -73 1z"/>
<path d="M10837 9272 c-29 -32 -17 -112 19 -126 55 -21 97 66 58 122 -18 27
-55 29 -77 4z"/>
<path d="M10075 9220 c-18 -28 51 -167 108 -215 42 -36 85 -59 130 -70 26 -7
27 -6 27 36 0 82 -88 196 -184 240 -46 21 -72 24 -81 9z"/>
<path d="M10508 9199 c-25 -14 -22 -34 7 -47 36 -16 37 -16 33 20 -3 35 -14
42 -40 27z"/>
<path d="M10692 9018 c-19 -19 -15 -48 8 -48 16 0 20 7 20 30 0 32 -9 37 -28
18z"/>
<path d="M1620 8998 c-43 -47 -14 -138 44 -138 33 0 51 26 51 75 0 74 -52 109
-95 63z"/>
<path d="M11272 8807 c-27 -29 -27 -43 -2 -84 34 -56 100 -34 100 33 0 67 -56
96 -98 51z"/>
<path d="M10886 8782 c-7 -12 23 -52 39 -52 16 0 29 35 20 50 -7 12 -52 13
-59 2z"/>
<path d="M1187 8642 c-19 -21 -23 -92 -7 -123 19 -35 73 -20 98 28 18 32 15
48 -14 82 -29 35 -54 39 -77 13z"/>
<path d="M11456 8638 c-49 -70 25 -181 77 -117 21 26 20 97 -3 124 -18 22 -57
18 -74 -7z"/>
<path d="M11070 8592 c0 -31 25 -51 43 -33 17 17 3 56 -20 59 -19 3 -23 -1
-23 -26z"/>
<path d="M1030 8472 c-37 -11 -52 -70 -30 -113 14 -25 85 -27 94 -3 24 63 -14
132 -64 116z"/>
<path d="M11631 8453 c-19 -37 -17 -86 5 -107 18 -19 65 -21 82 -4 19 19 15
92 -6 111 -24 22 -69 22 -81 0z"/>
<path d="M11266 8369 c23 -24 30 -27 32 -14 6 28 -7 45 -35 45 l-27 0 30 -31z"/>
<path d="M11464 8195 c-9 -22 9 -37 37 -33 16 2 24 10 24 23 0 26 -52 35 -61
10z"/>
<path d="M640 8005 c-12 -15 -8 -93 6 -116 11 -18 63 -9 78 13 22 30 20 81 -2
101 -23 21 -66 22 -82 2z"/>
<path d="M11685 7980 c3 -5 8 -10 11 -10 2 0 4 5 4 10 0 6 -5 10 -11 10 -5 0
-7 -4 -4 -10z"/>
<path d="M11863 7784 c-5 -14 11 -34 27 -34 3 0 11 4 19 9 19 12 6 41 -19 41
-11 0 -23 -7 -27 -16z"/>
<path d="M12067 7653 c-11 -10 -8 -77 4 -112 9 -25 16 -31 40 -31 19 0 32 7
40 21 17 32 13 88 -7 110 -16 18 -64 26 -77 12z"/>
<path d="M12257 7468 c-25 -14 -32 -73 -13 -104 14 -20 24 -25 49 -22 l32 3 0
59 c0 56 -2 60 -26 67 -14 3 -33 2 -42 -3z"/>
<path d="M11854 7386 c-12 -31 1 -51 32 -54 34 -3 49 16 39 49 -8 23 -63 26
-71 5z"/>
<path d="M12065 7160 c-15 -17 -16 -20 -3 -20 19 0 42 26 30 34 -5 3 -17 -3
-27 -14z"/>
<path d="M12245 7010 c-21 -40 -19 -86 5 -110 24 -24 53 -26 75 -3 20 19 17
102 -5 128 -21 25 -58 19 -75 -15z"/>
<path d="M12030 6785 c0 -22 38 -39 56 -24 11 9 12 15 3 25 -15 19 -59 18 -59
-1z"/>
<path d="M12480 6780 c0 -25 25 -36 45 -20 25 21 18 40 -15 40 -23 0 -30 -4
-30 -20z"/>
<path d="M21 6634 c-25 -32 -25 -37 -6 -74 38 -74 105 -54 105 30 0 47 -16 70
-50 70 -19 0 -35 -9 -49 -26z"/>
<path d="M12282 6578 c-18 -18 -15 -36 7 -48 29 -15 31 -13 31 25 0 36 -15 46
-38 23z"/>
<path d="M12454 6395 c-18 -15 -18 -16 5 -35 28 -24 45 -22 49 8 4 29 -29 46
-54 27z"/>
<path d="M12285 6210 c-17 -19 -17 -22 -3 -36 21 -22 38 -10 38 27 0 34 -10
37 -35 9z"/>
<path d="M24 6199 c-12 -20 -8 -97 6 -113 7 -9 22 -16 34 -16 40 0 47 13 44
76 l-3 59 -37 3 c-21 2 -39 -2 -44 -9z"/>
<path d="M12484 5986 c-10 -26 4 -48 28 -44 17 2 23 10 23 28 0 18 -6 26 -23
28 -13 2 -25 -3 -28 -12z"/>
<path d="M35 5846 c-13 -9 -18 -26 -18 -60 0 -60 20 -84 60 -70 25 8 28 15 31
64 3 43 -1 57 -14 67 -23 17 -36 16 -59 -1z"/>
<path d="M12252 5848 c-32 -41 -24 -125 13 -134 13 -3 33 -1 44 6 17 9 21 20
21 66 0 49 -2 55 -26 64 -33 13 -40 13 -52 -2z"/>
<path d="M12696 5844 c-23 -23 -21 -89 4 -114 32 -32 66 -25 89 17 16 32 14
57 -10 87 -23 29 -60 34 -83 10z"/>
<path d="M12440 5670 c-23 -23 -28 -108 -8 -128 17 -17 63 -15 79 4 30 37 3
144 -36 144 -8 0 -24 -9 -35 -20z"/>
<path d="M12280 5394 c-11 -12 -11 -18 2 -31 20 -20 38 -9 38 23 0 27 -21 32
-40 8z"/>
<path d="M199 5204 c-7 -9 -14 -34 -14 -56 0 -46 25 -71 65 -66 23 3 25 8 28
58 3 43 -1 57 -14 67 -24 18 -49 16 -65 -3z"/>
<path d="M12431 5206 c-17 -21 -10 -107 10 -119 24 -15 64 -1 77 28 12 27 7
70 -11 93 -13 16 -62 15 -76 -2z"/>
<path d="M12062 5180 c-10 -17 -10 -20 3 -20 8 0 19 9 25 20 8 15 8 20 -2 20
-7 0 -19 -9 -26 -20z"/>
<path d="M12258 5039 c-40 -23 -25 -136 20 -154 26 -10 54 28 60 83 4 43 1 51
-19 66 -27 18 -37 19 -61 5z"/>
<path d="M12100 4765 c-11 -13 -11 -19 3 -32 21 -21 49 -9 45 19 -4 28 -30 35
-48 13z"/>
<path d="M386 4674 c-18 -18 -22 -95 -6 -125 13 -22 48 -25 76 -5 14 11 19 26
19 59 0 71 -50 111 -89 71z"/>
<path d="M12280 4584 c-10 -11 -11 -20 -3 -32 17 -27 38 -20 38 12 0 34 -16
44 -35 20z"/>
<path d="M12072 4398 c-16 -16 -16 -89 1 -111 18 -23 61 -31 76 -14 22 28 25
80 4 104 -22 27 -64 38 -81 21z"/>
<path d="M610 4352 c0 -11 7 -25 15 -32 21 -18 47 -5 43 22 -4 31 -58 40 -58
10z"/>
<path d="M785 4170 c-3 -5 4 -19 16 -31 l22 -22 19 22 c10 13 15 27 12 32 -7
12 -61 12 -69 -1z"/>
<path d="M11854 4169 c-3 -6 3 -20 14 -32 17 -17 23 -18 36 -7 9 7 16 21 16
31 0 14 -7 19 -29 19 -17 0 -33 -5 -37 -11z"/>
<path d="M994 4024 c-8 -31 1 -91 17 -110 17 -21 56 -17 73 8 9 12 16 39 16
60 0 42 -27 68 -72 68 -21 0 -29 -6 -34 -26z"/>
<path d="M11637 4032 c-37 -40 -10 -132 38 -132 33 0 68 46 60 80 -16 66 -63
91 -98 52z"/>
<path d="M1206 3775 c-20 -20 -20 -29 -1 -45 23 -19 47 -4 43 27 -4 32 -20 39
-42 18z"/>
<path d="M11485 3776 c-16 -12 -18 -18 -9 -33 14 -23 34 -23 48 -1 8 14 7 21
-5 33 -13 13 -17 13 -34 1z"/>
<path d="M11276 3578 c-22 -31 -21 -101 2 -121 44 -40 92 -10 92 56 0 51 -23
87 -55 87 -13 0 -31 -10 -39 -22z"/>
<path d="M1414 3546 c-3 -8 0 -24 6 -36 l12 -22 20 20 c12 12 18 27 15 36 -8
20 -46 21 -53 2z"/>
<path d="M11093 3393 c-12 -30 -8 -90 6 -107 19 -23 57 -20 75 6 20 29 20 82
0 102 -21 22 -73 21 -81 -1z"/>
<path d="M1582 3349 c4 -27 33 -48 47 -34 5 6 11 19 13 30 2 16 -3 21 -30 23
-30 3 -33 1 -30 -19z"/>
<path d="M10710 3346 c0 -13 7 -29 15 -36 20 -17 45 3 45 36 0 20 -5 24 -30
24 -25 0 -30 -4 -30 -24z"/>
<path d="M10885 3180 c-10 -15 14 -50 34 -50 23 0 35 28 20 46 -13 16 -45 18
-54 4z"/>
<path d="M1828 3146 c-24 -17 -23 -42 1 -49 27 -7 43 7 39 33 -4 28 -17 34
-40 16z"/>
<path d="M10508 3149 c-24 -13 -23 -45 1 -52 27 -7 43 7 39 33 -4 27 -16 33
-40 19z"/>
<path d="M10656 3034 c-3 -9 -6 -31 -6 -49 0 -53 9 -65 46 -65 49 0 71 36 55
90 -11 38 -14 40 -50 40 -26 0 -41 -5 -45 -16z"/>
<path d="M2001 2966 c-17 -21 -4 -56 20 -56 17 0 20 6 17 32 -3 36 -19 46 -37
24z"/>
<path d="M2400 2971 c0 -12 29 -35 36 -28 11 10 -5 37 -21 37 -8 0 -15 -4 -15
-9z"/>
<path d="M2174 2775 c-9 -23 3 -45 26 -45 25 0 37 25 20 45 -16 19 -39 19 -46
0z"/>
<path d="M9703 2774 c-7 -20 9 -49 28 -49 22 0 18 59 -4 63 -9 2 -20 -4 -24
-14z"/>
<path d="M10149 2774 c-9 -11 -10 -20 -2 -32 17 -28 38 -20 41 16 4 36 -16 44
-39 16z"/>
<path d="M10494 2772 c-52 -35 -29 -142 31 -142 31 0 45 19 45 65 0 63 -38
103 -76 77z"/>
<path d="M2602 2748 c-16 -16 -15 -28 3 -28 8 0 15 2 15 4 0 2 3 11 6 20 7 19
-7 21 -24 4z"/>
<path d="M10294 2574 c-4 -15 -3 -47 2 -73 8 -42 12 -46 41 -49 27 -3 34 2 47
27 27 52 20 88 -21 110 -37 19 -62 14 -69 -15z"/>
<path d="M9507 2572 c-22 -24 -21 -42 2 -42 11 0 21 9 25 22 8 31 -7 42 -27
20z"/>
<path d="M9914 2554 c3 -9 6 -18 6 -20 0 -2 10 -4 22 -4 20 0 21 1 3 20 -22
24 -40 26 -31 4z"/>
<path d="M2380 2543 c0 -22 18 -43 38 -43 9 0 12 9 10 28 -4 33 -48 47 -48 15z"/>
<path d="M2151 2391 c-17 -30 -13 -76 7 -101 41 -51 106 12 86 83 -8 28 -15
32 -46 35 -28 2 -39 -1 -47 -17z"/>
<path d="M2587 2403 c-13 -12 -7 -89 9 -111 19 -27 60 -29 74 -3 5 11 10 34
10 51 0 49 -16 70 -54 70 -18 0 -36 -3 -39 -7z"/>
<path d="M9673 2395 c-9 -25 4 -107 18 -116 20 -12 53 -11 67 3 13 13 16 85 6
112 -8 22 -82 22 -91 1z"/>
<path d="M8525 2380 c-18 -19 -17 -20 3 -20 12 0 22 2 22 4 0 2 3 11 6 20 9
22 -9 20 -31 -4z"/>
<path d="M8944 2365 c-8 -19 3 -35 26 -35 22 0 35 30 18 42 -20 12 -38 10 -44
-7z"/>
<path d="M9303 2364 c-8 -21 13 -42 28 -27 13 13 5 43 -11 43 -6 0 -13 -7 -17
-16z"/>
<path d="M9516 2229 c-21 -16 -26 -29 -26 -64 0 -26 6 -50 16 -59 18 -19 65
-21 82 -4 19 19 15 102 -5 120 -32 27 -40 28 -67 7z"/>
<path d="M2422 2215 c-18 -40 -15 -92 8 -115 24 -24 29 -24 58 -4 18 12 22 25
22 68 0 58 -12 76 -50 76 -19 0 -30 -8 -38 -25z"/>
<path d="M8718 2223 c-25 -29 -30 -59 -14 -96 17 -42 30 -51 61 -43 41 10 56
101 22 144 -14 18 -51 15 -69 -5z"/>
<path d="M9066 2218 c-22 -31 -20 -80 5 -112 26 -33 42 -33 69 2 38 47 15 132
-36 132 -12 0 -30 -10 -38 -22z"/>
<path d="M8320 2181 c0 -10 7 -24 15 -31 12 -10 16 -9 21 4 3 9 4 23 0 31 -8
21 -36 19 -36 -4z"/>
<path d="M2805 2147 c-25 -19 -13 -47 20 -47 23 0 26 4 23 27 -4 32 -17 38
-43 20z"/>
<path d="M7942 2148 c-19 -19 -15 -48 7 -48 24 0 45 25 37 45 -7 18 -27 20
-44 3z"/>
<path d="M8870 2031 c-15 -28 -12 -73 6 -99 27 -40 88 -23 99 27 6 30 -7 69
-29 83 -22 15 -65 8 -76 -11z"/>
<path d="M2617 1959 c-7 -25 8 -49 30 -49 10 0 13 9 11 32 -4 39 -32 51 -41
17z"/>
<path d="M6960 1965 c-18 -21 -5 -47 22 -43 31 4 40 58 10 58 -11 0 -25 -7
-32 -15z"/>
<path d="M7314 1966 c-15 -12 -17 -18 -8 -33 18 -29 39 -22 42 15 4 35 -4 39
-34 18z"/>
<path d="M7755 1960 c-7 -23 10 -50 32 -50 10 0 13 9 11 32 -4 39 -33 51 -43
18z"/>
<path d="M8106 1959 c-19 -27 -4 -52 28 -47 16 2 21 10 21 33 0 37 -27 45 -49
14z"/>
<path d="M8544 1966 c-26 -20 -26 -96 0 -125 39 -43 86 -10 86 59 0 66 -42 98
-86 66z"/>
<path d="M6336 1781 c-17 -19 -17 -20 8 -36 31 -21 46 -13 46 26 0 35 -27 40
-54 10z"/>
<path d="M2416 1775 c-9 -24 -7 -98 3 -113 5 -8 22 -12 42 -10 l34 3 0 65 0
65 -36 3 c-26 2 -38 -1 -43 -13z"/>
<path d="M6759 1769 c-14 -27 -6 -99 13 -110 7 -5 25 -9 40 -9 32 0 48 24 48
70 0 50 -16 70 -55 70 -25 0 -37 -6 -46 -21z"/>
<path d="M7106 1768 c-34 -48 -8 -118 43 -118 37 0 61 28 61 72 0 63 -71 94
-104 46z"/>
<path d="M7906 1768 c-22 -30 -20 -81 2 -101 10 -10 32 -17 50 -17 26 0 32 5
41 33 25 76 -51 145 -93 85z"/>
<path d="M5962 1757 c-27 -28 -28 -37 -4 -37 23 0 42 19 42 42 0 24 -12 23
-38 -5z"/>
<path d="M7520 1726 c0 -7 7 -19 15 -26 19 -16 41 1 32 24 -8 20 -47 21 -47 2z"/>
<path d="M6146 1598 c-32 -46 -10 -138 33 -138 48 0 73 77 42 128 -24 38 -53
42 -75 10z"/>
<path d="M6485 1590 c-21 -40 -19 -86 5 -110 46 -46 96 -8 88 65 -6 53 -22 75
-54 75 -16 0 -28 -10 -39 -30z"/>
<path d="M5750 1541 c0 -10 7 -24 16 -32 13 -10 17 -10 25 2 17 27 10 49 -16
49 -18 0 -25 -5 -25 -19z"/>
<path d="M2430 1410 c-27 -27 -27 -89 1 -119 27 -29 60 -24 77 12 11 23 11 35
0 69 -16 51 -49 67 -78 38z"/>
<path d="M5969 1411 c-32 -26 -32 -96 1 -123 47 -38 80 -16 80 54 0 35 -6 54
-20 68 -25 25 -32 25 -61 1z"/>
<path d="M5547 1332 c-16 -18 -16 -20 3 -37 27 -24 52 -13 48 22 -4 34 -28 41
-51 15z"/>
<path d="M5750 1193 c0 -11 6 -28 14 -39 18 -24 39 -7 34 27 -4 31 -48 41 -48
12z"/>
<path d="M5364 1145 c-9 -23 4 -47 23 -43 11 2 19 14 21 31 3 22 -1 27 -18 27
-11 0 -23 -7 -26 -15z"/>
<path d="M5518 963 c-55 -64 2 -171 68 -128 19 12 24 24 24 58 0 74 -53 114
-92 70z"/>
<path d="M5160 935 c-7 -9 -10 -18 -7 -22 8 -7 37 15 37 28 0 14 -16 11 -30
-6z"/>
<path d="M5356 779 c-49 -38 -27 -129 31 -129 29 0 53 32 53 71 0 62 -42 91
-84 58z"/>
<path d="M4610 748 c0 -18 18 -34 28 -24 3 4 -2 14 -11 23 -16 16 -17 16 -17
1z"/>
<path d="M4952 748 c-15 -15 3 -48 28 -48 19 0 36 32 25 50 -8 14 -38 13 -53
-2z"/>
<path d="M4390 612 c-26 -21 -40 -103 -21 -126 22 -26 52 -26 78 0 21 21 25
32 20 66 -5 36 -30 78 -47 78 -4 0 -18 -8 -30 -18z"/>
<path d="M5182 614 c-29 -20 -36 -65 -18 -108 12 -30 20 -36 45 -36 36 0 51
23 51 77 -1 61 -39 94 -78 67z"/>
<path d="M3970 559 c0 -20 21 -49 35 -49 17 0 39 36 30 50 -8 13 -65 13 -65
-1z"/>
<path d="M4780 552 c0 -26 27 -49 41 -35 17 17 6 48 -19 51 -16 3 -22 -2 -22
-16z"/>
<path d="M3596 514 c-7 -19 10 -44 30 -44 9 0 14 11 14 30 0 23 -5 30 -19 30
-10 0 -22 -7 -25 -16z"/>
<path d="M4546 424 c-23 -23 -21 -89 4 -114 40 -40 90 -10 90 55 0 62 -56 98
-94 59z"/>
<path d="M3420 345 c-15 -19 -9 -49 12 -53 17 -3 27 21 20 51 -5 21 -16 22
-32 2z"/>
<path d="M3770 345 c-17 -21 -2 -50 26 -50 14 0 19 7 19 30 0 34 -24 45 -45
20z"/>
<path d="M4222 344 c-27 -19 -28 -35 -2 -52 28 -17 40 -7 40 34 0 38 -6 41
-38 18z"/>
<path d="M3930 150 c-31 -31 -27 -94 6 -125 34 -31 38 -31 64 3 17 21 21 36
17 69 -8 72 -46 94 -87 53z"/>
<path d="M3569 144 c-30 -37 -3 -134 38 -134 42 0 69 82 43 131 -13 24 -62 26
-81 3z"/>
</g>
</svg>
